<svg xmlns="http://www.w3.org/2000/svg" xmlns:xlink="http://www.w3.org/1999/xlink" height="40" enable-background="new 0 0 72 72" viewBox="0 0 72 72"><clipPath id="a"><path d="m32.5 9.1h31.4v21h-31.4z"/></clipPath><clipPath id="b"><path d="m32.5 49.5h31.4v13.4h-31.4z"/></clipPath><path fill="#727273" d="m54.8 62.9h-44.6c-5 0-9.1-4.1-9.1-9.1v-35.6c0-5 4.1-9.1 9.1-9.1h44.6c5 0 9.1 4.1 9.1 9.1v35.6c0 5-4 9.1-9.1 9.1"/><path fill="#a81f24" d="m65.3 42.2c.7.7 1 1.7 1 2.7 0 .5.5.8.9.5.2-.2.5-.3.7-.6 1.5-1.6 1.6-4 .2-5.4s-3.8-1.3-5.3.3c-.2.2-.4.4-.5.7-.3.4 0 .9.5.9.8-.2 1.8.2 2.5.9"/><path fill="#a81f24" d="m65.3 42.2c.7.7 1 1.7 1 2.7 0 .5.5.8.9.5.2-.2.5-.3.7-.6 1.5-1.6 1.6-4 .2-5.4s-3.8-1.3-5.3.3c-.2.2-.4.4-.5.7-.3.4 0 .9.5.9.8-.2 1.8.2 2.5.9"/><path fill="#a71f26" d="m65.3 42.2c.7.7 1 1.7 1 2.7 0 .5.5.8.9.5.2-.2.5-.3.7-.6 1.5-1.6 1.6-4 .2-5.4s-3.8-1.3-5.3.3c-.2.2-.4.4-.5.7-.3.4 0 .9.5.9.8-.2 1.8.2 2.5.9"/><path fill="#a71f26" d="m67.9 38.3c0 1.5-1.2 2.7-2.6 2.7s-2.6-1.2-2.6-2.7 1.2-2.7 2.6-2.7 2.6 1.2 2.6 2.7"/><path fill="#a41e22" d="m72 38.3c0-2.2-1.6-4-3.6-4s-3.6 1.8-3.6 4c0 .3 0 .6.1.9.1.5.7.6 1 .3.6-.7 1.5-1.2 2.5-1.2s1.9.4 2.5 1.2c.3.3.9.2 1-.3"/><path fill="#a81f24" d="m72 38.3c0-2.2-1.6-4-3.6-4s-3.6 1.8-3.6 4c0 .3 0 .6.1.9.1.5.7.6 1 .3.6-.7 1.5-1.2 2.5-1.2s1.9.4 2.5 1.2c.3.3.9.2 1-.3"/><path fill="#a71f26" d="m72 38.3c0-2.2-1.6-4-3.6-4s-3.6 1.8-3.6 4c0 .3 0 .6.1.9.1.5.7.6 1 .3.6-.7 1.5-1.2 2.5-1.2s1.9.4 2.5 1.2c.3.3.9.2 1-.3"/><path fill="#c12228" d="m0 30.2h64.9v19.3h-64.9z"/><path fill="#fff" d="m25.2 44.5h-6.3c-1.2 0-2.1-.8-2.1-1.8v-4.9c0-1.2 1.4-2.1 2.7-1.8l6.3 1.7c.9.2 1.5 1 1.5 1.8v3.2c0 1-.9 1.8-2.1 1.8"/><path fill="#a71f26" d="m43 30.2h21.9v19.3h-21.9z"/><path fill="#fff" d="m46.2 44.5h-6.3c-1.2 0-2.1-.8-2.1-1.8v-3.2c0-.8.6-1.5 1.5-1.8l6.3-1.7c1.3-.4 2.7.5 2.7 1.8v4.9c-.1 1-1 1.8-2.1 1.8"/><g fill="#373736"><path d="m32.5 30.2h31.4v-11.9c0-5.1-4.1-9.2-9.2-9.2h-22.2z" clip-path="url(#a)" opacity=".3"/><path d="m32.5 62.9h22.3c5 0 9.1-4.1 9.1-9.1v-4.3h-31.4z" clip-path="url(#b)" opacity=".3"/></g></svg>