<svg xmlns="http://www.w3.org/2000/svg" xmlns:xlink="http://www.w3.org/1999/xlink" height="45" enable-background="new 0 0 72 72" viewBox="0 0 72 72"><linearGradient id="a"><stop offset=".209" stop-color="#621817"/><stop offset="1" stop-color="#a91437"/></linearGradient><linearGradient id="b" x1="36" x2="36" y1="59.022" y2="41.408" gradientUnits="userSpaceOnUse" xlink:href="#a"/><linearGradient id="c" x1="36" x2="36" y1="50.215" y2="41.408" gradientUnits="userSpaceOnUse" xlink:href="#a"/><linearGradient id="d" x1="36" x2="36" y1="39.141" y2="12.979" gradientUnits="userSpaceOnUse" xlink:href="#a"/><path d="m0 13h72v46h-72z"/><path fill="url(#b)" d="m0 59 24.6-17.6h22.4l25 17.6z"/><path fill="url(#c)" d="m24.8 41.4 10.6 8.8 11.8-8.8z"/><path fill="#fff" d="m10.9 20.4s-6.6 11.8 7 19c0 0 7.8 4.1 15.6-2.6z"/><circle cx="25.7" cy="31.9" r="3.9" fill="#195994"/><circle cx="26" cy="33.3" r="1.5"/><path fill="#fff" d="m61.1 20.4s6.6 11.8-7 19c0 0-7.8 4.1-15.6-2.6z"/><circle cx="46.3" cy="31.9" r="3.9" fill="#195994"/><circle cx="46" cy="33.3" r="1.5"/><path fill="url(#d)" d="m0 13 35.4 26.1 36.6-26.1z"/></svg>