<svg xmlns="http://www.w3.org/2000/svg" xmlns:xlink="http://www.w3.org/1999/xlink" id="Layer_1" width="43" height="35" x="0" y="0" enable-background="new 140 0 420 340" version="1.1" viewBox="140 0 420 340" xml:space="preserve"><g id="g6321" transform="translate(-9.4000001,96.810998)"><g id="g6323" transform="matrix(1.8215159,0,0,1.8215159,-8.5437653,-109.83667)"><path id="path6325" fill="#FFF" d="M282.152,138.716c0,13.061-10.635,23.695-23.695,23.695H129.532V68.563 c0-13.06,10.635-23.695,23.695-23.695h128.925V138.716z"/><g id="g6327"><linearGradient id="path6338_1_" x1="138.482" x2="175.747" y1="96.847" y2="96.847" gradientTransform="matrix(2.0492 0 0 -2.0492 -51.9252 308.6292)" gradientUnits="userSpaceOnUse"><stop offset="0" style="stop-color:#007940"/><stop offset=".229" style="stop-color:#00873f"/><stop offset=".743" style="stop-color:#40a737"/><stop offset="1" style="stop-color:#5cb531"/></linearGradient><path id="path6338" fill="url(#path6338_1_)" d="M240.171,114.648h9.796c0.279,0,0.932-0.094,1.212-0.094 c1.866-0.373,3.452-2.052,3.452-4.384c0-2.239-1.586-3.919-3.452-4.385c-0.28-0.093-0.839-0.093-1.212-0.093h-9.796V114.648z"/><linearGradient id="path6349_1_" x1="138.482" x2="175.714" y1="100.011" y2="100.011" gradientTransform="matrix(2.0492 0 0 -2.0492 -51.9252 308.6292)" gradientUnits="userSpaceOnUse"><stop offset="0" style="stop-color:#007940"/><stop offset=".229" style="stop-color:#00873f"/><stop offset=".743" style="stop-color:#40a737"/><stop offset="1" style="stop-color:#5cb531"/></linearGradient><path id="path6349" fill="url(#path6349_1_)" d="M248.847,52.798c-9.329,0-16.979,7.556-16.979,16.978v17.632h23.975 c0.56,0,1.213,0,1.68,0.093c5.411,0.28,9.422,3.079,9.422,7.93c0,3.825-2.705,7.09-7.743,7.743v0.187 c5.504,0.373,9.702,3.452,9.702,8.209c0,5.131-4.665,8.49-10.822,8.49h-26.307v34.517h24.908c9.329,0,16.978-7.557,16.978-16.979 V52.798H248.847L248.847,52.798z"/><linearGradient id="path6360_1_" x1="138.482" x2="175.75" y1="103.493" y2="103.493" gradientTransform="matrix(2.0492 0 0 -2.0492 -51.9252 308.6292)" gradientUnits="userSpaceOnUse"><stop offset="0" style="stop-color:#007940"/><stop offset=".229" style="stop-color:#00873f"/><stop offset=".743" style="stop-color:#40a737"/><stop offset="1" style="stop-color:#5cb531"/></linearGradient><path id="path6360" fill="url(#path6360_1_)" d="M253.419,96.55c0-2.239-1.586-3.732-3.452-4.011 c-0.187,0-0.654-0.094-0.933-0.094h-8.863v8.21h8.863c0.28,0,0.84,0,0.933-0.093C251.833,100.281,253.419,98.789,253.419,96.55z"/></g><linearGradient id="path6371_1_" x1="92.683" x2="130.524" y1="100.033" y2="100.033" gradientTransform="matrix(2.0492 0 0 -2.0492 -51.9252 308.6292)" gradientUnits="userSpaceOnUse"><stop offset="0" style="stop-color:#1f286f"/><stop offset=".475" style="stop-color:#004e94"/><stop offset=".826" style="stop-color:#0066b1"/><stop offset="1" style="stop-color:#006fbc"/></linearGradient><path id="path6371" fill="url(#path6371_1_)" d="M154.999,52.798c-9.329,0-16.979,7.556-16.979,16.978v41.886 c4.758,2.332,9.702,3.825,14.646,3.825c5.877,0,9.049-3.545,9.049-8.396V87.314h14.553v19.684c0,7.65-4.758,13.9-20.897,13.9 c-9.795,0-17.445-2.146-17.445-2.146v35.73h24.908c9.329,0,16.978-7.557,16.978-16.979V52.798H154.999L154.999,52.798z"/><linearGradient id="path6384_1_" x1="115.474" x2="152.225" y1="99.988" y2="99.988" gradientTransform="matrix(2.0492 0 0 -2.0492 -51.9252 308.6292)" gradientUnits="userSpaceOnUse"><stop offset="0" style="stop-color:#6c2c2f"/><stop offset=".173" style="stop-color:#882730"/><stop offset=".573" style="stop-color:#be1833"/><stop offset=".859" style="stop-color:#dc0436"/><stop offset="1" style="stop-color:#e60039"/></linearGradient><path id="path6384" fill="url(#path6384_1_)" d="M201.924,52.798c-9.329,0-16.979,7.556-16.979,16.978v22.203 c4.291-3.638,11.754-5.97,23.788-5.411c6.437,0.28,13.34,2.053,13.34,2.053v7.183c-3.452-1.772-7.557-3.359-12.874-3.731 c-9.142-0.653-14.646,3.824-14.646,11.661c0,7.929,5.504,12.408,14.646,11.661c5.317-0.373,9.422-2.053,12.874-3.732v7.184 c0,0-6.81,1.772-13.34,2.052c-12.034,0.56-19.497-1.772-23.788-5.411v39.181h24.908c9.329,0,16.979-7.556,16.979-16.978V52.798 H201.924L201.924,52.798z"/></g></g></svg>